<svg version="1.1" xmlns="http://www.w3.org/2000/svg" xmlns:xlink="http://www.w3.org/1999/xlink" width="283" height="283" viewBox="0,0,283,283"><g transform="translate(-98.5,-38.5)"><g data-paper-data="{&quot;isPaintingLayer&quot;:true}" fill-rule="nonzero" stroke="#000000" stroke-linejoin="miter" stroke-miterlimit="10" stroke-dasharray="" stroke-dashoffset="0" style="mix-blend-mode: normal"><path d="M104.5,180c0,-74.83458 60.66542,-135.5 135.5,-135.5c74.83458,0 135.5,60.66542 135.5,135.5c0,74.83458 -60.66542,135.5 -135.5,135.5c-74.83458,0 -135.5,-60.66542 -135.5,-135.5z" fill="#ff0000" stroke-width="12" stroke-linecap="butt"/><path d="M111,171.86466h260" fill="none" stroke-width="15.5" stroke-linecap="round"/><path d="M111.5,175l256,1c0,0 6.84313,38.15313 -12.29963,69.1491c-12.95769,20.9811 -34.71028,40.7461 -59.4528,52.43353c-19.98889,9.44199 -42.27653,12.91737 -60.74757,12.91737c-42.02761,0 -85.58624,-27.737 -110.4399,-65.20822c-19.4009,-29.25023 -13.0601,-70.29178 -13.0601,-70.29178z" fill="#ffffff" stroke-width="0" stroke-linecap="butt"/><path d="M197.5,180c0,-23.4721 19.0279,-42.5 42.5,-42.5c23.4721,0 42.5,19.0279 42.5,42.5c0,23.4721 -19.0279,42.5 -42.5,42.5c-23.4721,0 -42.5,-19.0279 -42.5,-42.5z" fill="#b8f9ff" stroke-width="6.5" stroke-linecap="butt"/></g></g></svg>